<svg id="Capa_1" data-name="Capa 1" xmlns="http://www.w3.org/2000/svg" xmlns:xlink="http://www.w3.org/1999/xlink" viewBox="0 0 472 123"><defs><style>.cls-1{fill:#00005b;}.cls-2{fill:url(#Degradado_sin_nombre_3);}</style><linearGradient id="Degradado_sin_nombre_3" x1="1" y1="61.5" x2="109.53" y2="61.5" gradientUnits="userSpaceOnUse"><stop offset="0.09" stop-color="#00dfff"/><stop offset="0.8" stop-color="#00b4ff"/></linearGradient></defs><title>Mesa de trabajo 31</title><path class="cls-1" d="M198.71,79.31c0,3.19.19,6.68.38,8.62H187a33.31,33.31,0,0,1-.48-5.52c-2.1,3.78-6.86,6.68-13.15,6.68C160,89.09,150.49,78.44,150.49,64c0-13.94,9.24-24.88,22.49-24.88,8.1,0,11.91,3.39,13.25,5.91V17.84h12.48Zm-23.82-1.74c6.48,0,11.53-5,11.53-13.65s-5.05-13.26-11.53-13.26S163.26,55.5,163.26,64,168.22,77.57,174.89,77.57Z"/><path class="cls-1" d="M241,53.08a18.79,18.79,0,0,0-3.81-.39c-6.48,0-12.1,3.19-12.1,13.46V87.93H212.44V40.3h12.29v7.07c2.86-6.29,9.34-7.45,13.34-7.45a28.45,28.45,0,0,1,3,.19Z"/><path class="cls-1" d="M295.16,64.11c0,14.62-10.58,25.27-24.59,25.27S246,78.73,246,64.11s10.58-25.27,24.59-25.27S295.16,49.4,295.16,64.11Zm-12.67,0c0-9-5.72-13.55-11.91-13.55s-11.91,4.55-11.91,13.55,5.72,13.55,11.91,13.55S282.49,73.12,282.49,64.11Z"/><path class="cls-1" d="M305.17,106.32v-66h12.29v5.81c2.1-3.68,7.34-6.87,14.39-6.87,13.72,0,21.63,10.65,21.63,24.78,0,14.42-8.86,25.07-22.11,25.07-6.48,0-11.25-2.61-13.53-5.81v23Zm24.21-55.57c-6.48,0-11.72,4.94-11.72,13.36s5.24,13.46,11.72,13.46S341,72.63,341,64.11,335.86,50.75,329.38,50.75Z"/><path class="cls-1" d="M369.79,16.68a7.94,7.94,0,1,1-7.81,8A7.87,7.87,0,0,1,369.79,16.68ZM363.5,87.93V40.3h12.68V87.93Z"/><path class="cls-1" d="M431.73,74.28c-2.38,8.23-9.82,15.1-21.35,15.1-12.87,0-24.21-9.39-24.21-25.46,0-15.2,11.05-25.07,23.06-25.07,14.49,0,23.16,9.39,23.16,24.69,0,1.84-.19,3.78-.19,4H398.66c.29,6.29,5.53,10.84,11.82,10.84,5.91,0,9.15-3,10.67-7.26ZM419.92,58.69c-.19-4.74-3.24-9.39-10.48-9.39A10.21,10.21,0,0,0,399,58.69Z"/><path class="cls-1" d="M471,53.08a18.79,18.79,0,0,0-3.81-.39c-6.48,0-12.1,3.19-12.1,13.46V87.93H442.41V40.3H454.7v7.07c2.86-6.29,9.34-7.45,13.34-7.45a28.45,28.45,0,0,1,3,.19Z"/><path class="cls-2" d="M107.46,29.41a4.09,4.09,0,0,0-4.15,0L80.74,42.65,59,29.87a4.09,4.09,0,0,0-4.15,0L33,42.65,16.69,33.06,56.89,9.48,78.24,22a7.4,7.4,0,1,0,7.38-8,7.26,7.26,0,0,0-3.14.72L59,1a4.09,4.09,0,0,0-4.15,0L6.32,29.41a4.25,4.25,0,0,0,0,7.3L28.89,49.94V75.49A4.23,4.23,0,0,0,31,79.14L52.74,91.91v19.18L12.55,87.51V62.44a7.54,7.54,0,0,0,3.25-6.22,7.46,7.46,0,0,0-7.4-7.52A7.46,7.46,0,0,0,1,56.22a7.54,7.54,0,0,0,3.25,6.22v27.5a4.23,4.23,0,0,0,2.07,3.65L54.82,122A4.09,4.09,0,0,0,59,122,4.23,4.23,0,0,0,61,118.38V91.91L82.82,79.14a4.23,4.23,0,0,0,2.07-3.65V49.94l16.35-9.59V87.51L79.88,100a7.26,7.26,0,0,0-3.22-.76A7.52,7.52,0,1,0,84,107.33l23.43-13.74a4.23,4.23,0,0,0,2.07-3.65V33.06A4.23,4.23,0,0,0,107.46,29.41Zm-50.57,9,15.55,9.12L56.89,56.63,41.34,47.51ZM37.19,73.05V54.81l15.55,9.12V82.18Zm39.4,0L61,82.18V63.93l15.55-9.12Z"/></svg>