<svg id="Capa_1" data-name="Capa 1" xmlns="http://www.w3.org/2000/svg" viewBox="0 0 200 200"><defs><style>.cls-1,.cls-2{fill:none;stroke-linecap:round;stroke-linejoin:round;}.cls-1{stroke:#000d50;stroke-width:3.9px;}.cls-2{stroke:#00b4ff;stroke-width:3.59px;}</style></defs><title>Mesa de trabajo 36 copia 3</title><path class="cls-1" d="M83.78,59.85v10.3a17.45,17.45,0,0,0,5.56,12.93A15.38,15.38,0,0,0,100,87.16"/><path class="cls-1" d="M88.25,82V93s2.86,4.93,11.76,4.93"/><path class="cls-1" d="M88.25,93h-19a19.11,19.11,0,0,0-19,17.27l-5.73,59.28H100"/><path class="cls-1" d="M56.06,169.52V151.32a1.41,1.41,0,0,1,0-.15,4.38,4.38,0,0,1,4.73-4c4.54,0,4.84,3.94,4.84,3.94"/><path class="cls-1" d="M100,115.19H65.64v44.74H77.93a4.38,4.38,0,0,1,4,4.73c0,4.54-3.94,4.84-3.94,4.84"/><line class="cls-1" x1="47.66" y1="137.33" x2="65.64" y2="137.33"/><path class="cls-1" d="M116.22,59.35v10.8a17.45,17.45,0,0,1-5.56,12.93A15.38,15.38,0,0,1,100,87.16"/><path class="cls-1" d="M116.22,50.29V36.22C111,31,100,30.48,100,30.48h0S89,31,83.78,36.22v14"/><path class="cls-1" d="M111.75,82V93s-2.86,4.93-11.76,4.93"/><path class="cls-1" d="M111.75,93h19a19.11,19.11,0,0,1,19,17.27l5.73,59.28H100"/><path class="cls-1" d="M143.94,169.52V151.32a1.41,1.41,0,0,0,0-.15,4.38,4.38,0,0,0-4.73-4c-4.54,0-4.84,3.94-4.84,3.94"/><path class="cls-1" d="M100,115.19h34.35v44.74H122.07a4.38,4.38,0,0,0-4,4.73c0,4.54,3.94,4.84,3.94,4.84"/><line class="cls-1" x1="152.34" y1="137.33" x2="134.36" y2="137.33"/><path class="cls-1" d="M117.42,59.62l-8-1.81a41.94,41.94,0,0,0-18.74.08l-7.39,1.73a3.3,3.3,0,0,1-3.3-3.3V53.86a3.3,3.3,0,0,1,3.3-3.3l7.39-1.73a41.94,41.94,0,0,1,18.74-.08l8,1.81a3.3,3.3,0,0,1,3.3,3.3v2.46A3.3,3.3,0,0,1,117.42,59.62Z"/><line class="cls-2" x1="86.75" y1="135.99" x2="115.02" y2="135.99"/><line class="cls-2" x1="86.75" y1="147.42" x2="115.02" y2="147.42"/><line class="cls-2" x1="95.69" y1="39.7" x2="104.31" y2="39.7"/></svg>