<svg id="Capa_1" data-name="Capa 1" xmlns="http://www.w3.org/2000/svg" viewBox="0 0 200 200"><defs><style>.cls-1{fill:none;stroke:#000d50;stroke-linecap:round;stroke-linejoin:round;stroke-width:3.9px;}.cls-2{fill:#00b4ff;}</style></defs><title>Mesa de trabajo 36 copia 2</title><rect class="cls-1" x="66.54" y="38.66" width="66.92" height="122.69" rx="10.04" ry="10.04"/><rect class="cls-1" x="82.99" y="39.09" width="34.02" height="9.45"/><path class="cls-2" d="M114.52,91.21a1.15,1.15,0,0,0-1.15,0l-6.28,3.62L101,91.34a1.15,1.15,0,0,0-1.15,0l-6.06,3.5-4.55-2.63,11.18-6.46,5.94,3.43a2.06,2.06,0,1,0,1.18-2L101,83.42a1.15,1.15,0,0,0-1.15,0L86.38,91.21a1.15,1.15,0,0,0,0,2l6.28,3.63v7a1.15,1.15,0,0,0,.58,1l6.06,3.5v5.25l-11.18-6.46v-6.86a2.06,2.06,0,1,0-2.31,0v7.53a1.15,1.15,0,0,0,.58,1l13.49,7.79a1.15,1.15,0,0,0,1.73-1v-7.25l6.06-3.5a1.15,1.15,0,0,0,.58-1v-7l4.55-2.63v12.91l-5.94,3.43a2.06,2.06,0,1,0,1.15,2l6.52-3.76a1.15,1.15,0,0,0,.58-1V92.21A1.15,1.15,0,0,0,114.52,91.21Zm-14.07,2.46,4.33,2.5-4.33,2.5-4.33-2.5ZM95,103.16v-5l4.33,2.5v5Zm11,0-4.33,2.5v-5l4.33-2.5Z"/></svg>