<?xml version="1.0" encoding="UTF-8" standalone="no"?>
<svg
   xmlns:dc="http://purl.org/dc/elements/1.1/"
   xmlns:cc="http://creativecommons.org/ns#"
   xmlns:rdf="http://www.w3.org/1999/02/22-rdf-syntax-ns#"
   xmlns:svg="http://www.w3.org/2000/svg"
   xmlns="http://www.w3.org/2000/svg"
   xmlns:sodipodi="http://sodipodi.sourceforge.net/DTD/sodipodi-0.dtd"
   xmlns:inkscape="http://www.inkscape.org/namespaces/inkscape"
   id="svg6316"
   version="1.1"
   viewBox="0 0 132.29 44.9786"
   height="170"
   width="500"
   sodipodi:docname="dropier-typo.svg"
   inkscape:version="0.92.3 (3ce5693, 2018-03-11)">
  <sodipodi:namedview
     pagecolor="#ffffff"
     bordercolor="#666666"
     borderopacity="1"
     objecttolerance="10"
     gridtolerance="10"
     guidetolerance="10"
     inkscape:pageopacity="0"
     inkscape:pageshadow="2"
     inkscape:window-width="1366"
     inkscape:window-height="708"
     id="namedview10386"
     showgrid="false"
     height="170px"
     inkscape:zoom="0.754"
     inkscape:cx="226.79045"
     inkscape:cy="70"
     inkscape:window-x="0"
     inkscape:window-y="0"
     inkscape:window-maximized="1"
     inkscape:current-layer="svg6316" />
  <defs
     id="defs6310" />
  <metadata
     id="metadata6313">
    <rdf:RDF>
      <cc:Work
         rdf:about="">
        <dc:format>image/svg+xml</dc:format>
        <dc:type
           rdf:resource="http://purl.org/dc/dcmitype/StillImage" />
        <dc:title></dc:title>
      </cc:Work>
    </rdf:RDF>
  </metadata>
  <g
     transform="translate(0,-255.8619)"
     id="layer1">
    <g
       transform="matrix(0.41106684,0,0,-0.41106684,132.29167,275.02281)"
       id="g5618">
      <path
         d="m 0,0 c -1.436,0.292 -2.68,0.389 -3.827,0.389 -6.507,0 -12.152,-3.208 -12.152,-13.512 v -21.872 h -12.728 v 47.826 h 12.344 V 5.736 c 2.871,6.318 9.378,7.485 13.397,7.485 1.052,0 2.01,-0.098 2.966,-0.195 z m -51.293,-5.638 c -0.191,4.763 -3.253,9.429 -10.526,9.429 -6.603,0 -10.239,-5.054 -10.526,-9.429 z m 11.865,-15.65 c -2.392,-8.263 -9.855,-15.165 -21.433,-15.165 -12.918,0 -24.306,9.429 -24.306,25.566 0,15.261 11.1,25.177 23.157,25.177 14.544,0 23.252,-9.43 23.252,-24.788 0,-1.847 -0.19,-3.791 -0.19,-3.986 h -33.684 c 0.287,-6.318 5.55,-10.887 11.866,-10.887 5.932,0 9.186,3.014 10.716,7.291 z m -68.5149,34.1192 h 12.728 v -47.826 h -12.728 z m 6.315,23.719 c 4.402,0 7.848,-3.596 7.848,-8.068 0,-4.277 -3.446,-7.874 -7.848,-7.874 -4.306,0 -7.846,3.597 -7.846,7.874 0,4.472 3.54,8.068 7.846,8.068 m -40.5762,-34.217 c -6.507,0 -11.771,-4.958 -11.771,-13.415 0,-8.457 5.264,-13.512 11.771,-13.512 6.507,0 11.674,4.958 11.674,13.512 0,8.457 -5.167,13.415 -11.674,13.415 m -24.306,-55.797 v 66.295 h 12.344 v -5.832 c 2.106,3.694 7.369,6.901 14.449,6.901 13.781,0 21.722,-10.692 21.722,-24.885 0,-14.483 -8.898,-25.176 -22.199,-25.176 -6.508,0 -11.292,2.624 -13.588,5.832 v -23.135 z m -22.777,42.3822 c 0,9.04 -5.742,13.609 -11.962,13.609 -6.22,0 -11.962,-4.569 -11.962,-13.609 0,-8.943 5.742,-13.609 11.962,-13.609 6.22,0 11.962,4.569 11.962,13.609 m 12.726,0 c 0,-14.678 -10.622,-25.371 -24.688,-25.371 -14.067,0 -24.687,10.693 -24.687,25.371 0,14.776 10.62,25.371 24.687,25.371 14.066,0 24.688,-10.595 24.688,-25.371 M -230.916,0 c -1.435,0.292 -2.679,0.389 -3.826,0.389 -6.508,0 -12.153,-3.208 -12.153,-13.512 v -21.872 h -12.728 v 47.826 h 12.345 V 5.736 c 2.87,6.318 9.377,7.485 13.396,7.485 1.053,0 2.01,-0.098 2.966,-0.195 z m -66.4122,-24.5935 c 6.506,0 11.579,5.055 11.579,13.707 0,8.553 -5.073,13.317 -11.579,13.317 -6.507,0 -11.674,-4.861 -11.674,-13.415 0,-8.554 4.976,-13.609 11.674,-13.609 m 23.922,-1.75 c 0,-3.207 0.191,-6.707 0.383,-8.651 h -12.152 c -0.193,0.972 -0.479,3.305 -0.479,5.541 -2.105,-3.791 -6.889,-6.707 -13.205,-6.707 -13.397,0 -22.966,10.692 -22.966,25.176 0,13.998 9.282,24.983 22.583,24.983 8.134,0 11.962,-3.403 13.301,-5.93 v 27.316 h 12.535 z"
         style="fill:#00005b;fill-opacity:1;fill-rule:nonzero;stroke:none"
         id="path5620"
         inkscape:connector-curvature="0" />
    </g>
  </g>
</svg>
