<?xml version="1.0" encoding="UTF-8" standalone="no"?>
<svg
   xmlns:dc="http://purl.org/dc/elements/1.1/"
   xmlns:cc="http://creativecommons.org/ns#"
   xmlns:rdf="http://www.w3.org/1999/02/22-rdf-syntax-ns#"
   xmlns:svg="http://www.w3.org/2000/svg"
   xmlns="http://www.w3.org/2000/svg"
   id="svg6316"
   version="1.1"
   viewBox="0 0 39.687 44.9786"
   height="170"
   width="150">
  <defs
     id="defs6310">
    <linearGradient
       id="linearGradient5642"
       spreadMethod="pad"
       gradientTransform="matrix(108.97744,0,0,-108.97744,364.03607,337.5)"
       gradientUnits="userSpaceOnUse"
       y2="0"
       x2="1"
       y1="0"
       x1="0">
      <stop
         id="stop5634"
         offset="0"
         style="stop-opacity:1;stop-color:#00dfff" />
      <stop
         id="stop5636"
         offset="0.0945188"
         style="stop-opacity:1;stop-color:#00dfff" />
      <stop
         id="stop5638"
         offset="0.797442"
         style="stop-opacity:1;stop-color:#00b4ff" />
      <stop
         id="stop5640"
         offset="1"
         style="stop-opacity:1;stop-color:#00b4ff" />
    </linearGradient>
  </defs>
  <metadata
     id="metadata6313">
    <rdf:RDF>
      <cc:Work
         rdf:about="">
        <dc:format>image/svg+xml</dc:format>
        <dc:type
           rdf:resource="http://purl.org/dc/dcmitype/StillImage" />
        <dc:title></dc:title>
      </cc:Work>
    </rdf:RDF>
  </metadata>
  <g
     transform="translate(0,-252.02092)"
     id="layer1">
    <g
       id="g5622"
       transform="matrix(0.36417442,0,0,-0.36417442,-132.5726,397.56702)">
      <g
         id="g5624">
        <g
           id="g5630">
          <g
             id="g5632">
            <path
               id="path5644"
               style="fill:url(#linearGradient5642);stroke:none"
               d="m 418.074,398.281 -48.691,-28.559 c -1.289,-0.755 -2.083,-2.153 -2.083,-3.664 v 0 c 0,-1.511 0.794,-2.909 2.083,-3.663 v 0 l 22.661,-13.292 v -25.647 c 0,-1.512 0.794,-2.909 2.083,-3.664 v 0 l 21.866,-12.825 v -19.256 l -40.363,23.674 v 25.166 c 1.969,1.358 3.263,3.65 3.263,6.249 v 0 c 0,4.168 -3.326,7.547 -7.428,7.547 v 0 c -4.103,0 -7.429,-3.379 -7.429,-7.547 v 0 c 0,-2.599 1.295,-4.891 3.264,-6.249 v 0 -27.61 c 0,-1.51 0.794,-2.908 2.083,-3.663 v 0 l 48.691,-28.559 c 0.645,-0.378 1.364,-0.567 2.083,-0.567 v 0 c 0.718,0 1.438,0.189 2.083,0.567 v 0 c 1.287,0.755 2.082,2.153 2.082,3.664 v 0 26.584 l 21.865,12.825 c 1.288,0.755 2.082,2.152 2.082,3.664 v 0 25.648 l 16.415,9.627 v -47.346 l -21.44,-12.575 c -0.98,0.484 -2.075,0.762 -3.238,0.762 v 0 c -4.102,0 -7.428,-3.378 -7.428,-7.546 v 0 c 0,-4.167 3.326,-7.546 7.428,-7.546 v 0 c 3.923,0 7.127,3.09 7.402,7.002 v 0 l 23.523,13.796 c 1.289,0.755 2.083,2.153 2.083,3.663 v 0 57.117 c 0,1.511 -0.794,2.909 -2.083,3.664 v 0 c -1.289,0.756 -2.876,0.756 -4.165,0 v 0 l -22.662,-13.291 -21.864,12.824 c -1.289,0.757 -2.877,0.757 -4.166,0 v 0 l -21.865,-12.824 -16.414,9.627 40.362,23.673 21.432,-12.569 c 0.228,-3.959 3.451,-7.101 7.407,-7.101 v 0 c 4.102,0 7.428,3.378 7.428,7.546 v 0 c 0,4.168 -3.326,7.546 -7.428,7.546 v 0 c -1.128,0 -2.192,-0.262 -3.149,-0.718 v 0 l -23.607,13.846 c -0.645,0.378 -1.364,0.567 -2.083,0.567 v 0 c -0.719,0 -1.438,-0.189 -2.083,-0.567 m -13.536,-46.736 15.619,9.161 15.618,-9.161 -15.618,-9.16 z m 19.784,-16.488 15.618,9.161 v -18.32 l -15.618,-9.16 z m -23.948,-9.159 v 18.32 l 15.619,-9.161 v -18.319 z" />
          </g>
        </g>
      </g>
    </g>
  </g>
</svg>
